<?xml version="1.0" standalone="no"?>
<!DOCTYPE svg PUBLIC "-//W3C//DTD SVG 20010904//EN"
 "http://www.w3.org/TR/2001/REC-SVG-20010904/DTD/svg10.dtd">
<svg version="1.0" xmlns="http://www.w3.org/2000/svg"
 width="700.000000pt" height="700.000000pt" viewBox="0 0 700.000000 700.000000"
 preserveAspectRatio="xMidYMid meet">
<metadata>
Created by potrace 1.11, written by Peter Selinger 2001-2013
</metadata>
<g transform="translate(0.000000,700.000000) scale(0.100000,-0.100000)"
fill="#000000" stroke="none">
<path d="M590 6914 c-156 -34 -333 -112 -399 -175 -28 -27 -48 -62 -71 -119
-27 -71 -31 -96 -34 -193 -1 -62 -6 -123 -10 -137 -8 -30 -8 -182 0 -230 3
-19 7 -228 9 -465 1 -236 5 -445 9 -464 9 -46 31 -95 67 -155 l31 -50 -7 -170
c-5 -143 -11 -183 -31 -245 -22 -64 -24 -86 -19 -157 4 -47 2 -98 -4 -121 -6
-21 -11 -72 -12 -113 -1 -41 -9 -127 -18 -190 -15 -106 -15 -123 -1 -215 17
-108 19 -337 5 -575 -10 -165 -10 -180 4 -255 6 -33 13 -76 16 -95 7 -45 23
-135 31 -180 10 -59 6 -92 -26 -185 -62 -179 -71 -211 -76 -295 -4 -50 -2
-108 5 -140 6 -30 13 -66 16 -80 3 -14 7 -36 9 -50 3 -14 8 -58 11 -98 4 -40
17 -134 30 -210 17 -99 22 -162 19 -227 -3 -49 -6 -131 -9 -182 -2 -50 -10
-111 -18 -135 -18 -51 -15 -82 13 -162 26 -76 25 -87 -6 -177 -21 -59 -27 -94
-28 -174 -1 -91 1 -105 28 -157 68 -137 194 -191 476 -203 151 -6 145 -5 255
-48 l80 -32 270 1 c407 1 846 13 885 23 19 5 50 15 69 22 28 10 49 10 110 0
42 -7 85 -16 96 -19 11 -3 142 -6 290 -7 254 -2 440 -11 458 -22 5 -3 99 -7
210 -8 111 -2 256 -7 322 -11 66 -4 131 -7 145 -7 28 0 122 14 130 18 3 2 25
6 50 10 25 4 48 8 51 11 27 16 375 22 539 9 52 -4 199 -8 325 -9 135 -2 247
-7 270 -14 22 -6 54 -13 70 -16 114 -17 847 -28 1000 -14 111 10 113 11 275
75 190 76 245 127 275 258 23 99 19 167 -16 270 l-32 94 35 178 c32 159 36
196 37 348 1 107 -4 193 -12 232 -7 34 -13 70 -12 80 20 186 20 198 16 353 -2
47 -1 121 2 165 3 44 2 98 -2 120 -6 31 -2 55 17 104 27 76 28 146 1 261 -28
115 -26 339 3 451 l22 87 -39 143 c-45 168 -50 266 -19 410 2 13 6 101 9 194
2 94 6 179 8 190 5 19 10 63 22 185 3 30 12 100 19 155 20 149 14 270 -19 404
-35 144 -36 206 -6 299 22 67 23 78 11 130 -22 99 -48 158 -76 171 -40 18
-101 -15 -183 -100 -99 -101 -110 -128 -126 -299 -3 -36 -15 -95 -27 -132
l-21 -67 24 -108 c15 -71 24 -141 24 -203 0 -92 1 -96 27 -112 38 -24 44 -43
46 -134 2 -98 -13 -153 -65 -236 -22 -35 -44 -74 -48 -88 -14 -41 -7 -115 21
-213 28 -96 27 -89 21 -382 l-2 -90 53 -92 c29 -53 52 -105 52 -121 0 -19 -17
-51 -48 -93 -82 -108 -85 -121 -52 -227 11 -34 18 -77 15 -95 -16 -125 -20
-177 -20 -292 0 -122 2 -133 28 -184 35 -70 34 -94 -4 -143 -40 -50 -49 -90
-33 -151 15 -59 16 -52 -7 -112 -36 -96 -22 -153 66 -270 36 -47 74 -104 85
-125 11 -22 34 -61 50 -87 44 -69 40 -86 -32 -157 -35 -34 -84 -91 -110 -127
-57 -80 -353 -381 -397 -403 -17 -9 -61 -21 -99 -25 -37 -5 -87 -17 -112 -26
-31 -12 -82 -18 -160 -19 -154 -4 -182 -17 -229 -108 -32 -62 -30 -61 -161
-18 -67 23 -98 28 -145 25 -160 -12 -241 -8 -329 16 -39 11 -256 5 -301 -8
-11 -3 -43 -28 -72 -56 l-52 -50 -7 29 c-18 74 -76 147 -127 159 -48 12 -105
10 -168 -5 -83 -21 -104 -19 -167 19 -124 77 -204 78 -497 8 -335 -81 -380
-82 -536 -16 -81 35 -196 59 -297 64 -57 2 -81 8 -110 27 -58 39 -100 49 -166
39 -5 0 -38 -30 -72 -66 -70 -72 -84 -76 -195 -54 -30 6 -67 13 -84 15 -16 3
-73 16 -125 29 -231 59 -317 53 -437 -27 -37 -25 -86 -55 -109 -66 -43 -22
-63 -42 -79 -78 l-10 -23 -32 29 c-18 16 -53 60 -77 97 -24 38 -100 124 -169
192 -98 96 -137 144 -183 220 -57 95 -58 97 -67 201 -5 58 -9 134 -8 170 4
288 3 317 -21 452 l-25 137 34 28 c34 28 34 28 20 68 -16 45 -37 54 -72 31
-14 -9 -37 -24 -51 -33 l-27 -17 13 24 c7 14 28 43 46 65 39 48 39 48 64 231
10 69 11 98 2 124 -18 49 -15 71 18 136 55 112 62 141 65 281 2 82 -1 150 -9
180 -15 57 -12 93 10 153 34 94 27 346 -11 421 -9 17 -31 37 -50 45 l-34 14
25 44 c36 64 71 176 68 214 -1 19 -15 64 -29 100 -19 47 -27 82 -25 117 1 28
2 66 1 85 0 19 -2 172 -4 340 -2 168 -7 319 -10 335 -13 67 -19 147 -22 280
-2 84 -9 164 -19 200 -11 44 -14 94 -11 190 5 153 -4 188 -64 249 -46 47 -62
82 -50 113 13 34 70 73 160 108 106 41 154 68 193 109 90 93 184 204 221 259
24 34 51 70 62 79 46 41 156 67 203 48 17 -7 40 -31 55 -56 39 -67 60 -72 215
-59 19 1 50 3 68 4 25 1 35 7 42 25 16 42 89 77 91 44 6 -133 16 -147 91 -131
31 7 95 9 153 6 259 -13 357 -6 491 37 108 34 188 41 324 25 153 -17 273 -9
362 25 69 26 82 25 213 -10 163 -44 215 -39 288 31 71 68 128 89 165 63 11 -7
33 -35 50 -61 17 -27 45 -56 62 -66 63 -38 249 -16 386 44 71 32 101 57 118
99 15 37 15 38 58 30 71 -14 141 -41 178 -69 75 -58 110 -74 163 -73 29 1 61
3 72 6 11 2 49 7 85 11 36 5 74 9 85 11 11 1 23 3 27 3 3 1 38 30 77 66 l71
65 75 0 c83 0 165 -15 210 -38 17 -8 59 -43 95 -77 99 -93 133 -116 294 -196
104 -52 166 -89 205 -125 58 -53 95 -80 273 -200 110 -75 175 -109 222 -118
35 -6 63 21 102 95 25 47 28 64 26 129 -1 41 -3 93 -4 115 0 22 3 65 8 95 7
39 6 69 -3 104 -11 44 -11 51 7 74 24 29 25 51 5 115 -41 134 -73 156 -315
213 -85 20 -163 40 -172 45 -10 5 -23 9 -31 9 -7 0 -44 19 -82 41 -126 74
-135 79 -173 85 -25 3 -57 -2 -97 -16 -33 -11 -85 -23 -115 -26 -108 -10 -129
-13 -231 -40 -119 -30 -173 -32 -279 -9 -41 9 -124 18 -185 21 -60 2 -132 8
-158 14 -76 16 -186 12 -298 -11 -109 -22 -123 -21 -394 9 -116 12 -490 2
-535 -16 -34 -13 -75 -9 -200 19 -85 19 -126 23 -215 19 -95 -3 -480 -4 -1285
-1 -113 0 -232 -1 -265 -2 -52 -3 -126 9 -200 30 -11 4 -162 7 -335 7 -173 1
-320 4 -326 8 -5 4 -28 9 -50 12 -21 2 -73 12 -114 20 -89 19 -143 19 -230 0z
m-134 -5798 c2 -11 5 -31 9 -44 5 -19 2 -23 -12 -20 -22 4 -42 43 -36 69 7 25
35 21 39 -5z"/>
<path d="M2198 5235 c-48 -12 -88 -21 -90 -20 -6 6 -134 18 -177 17 -63 -2
-107 -19 -136 -53 -32 -38 -31 -52 4 -174 32 -113 33 -173 5 -292 l-17 -73 24
-47 c14 -25 29 -48 34 -50 6 -1 37 17 69 41 47 36 72 47 127 57 l69 12 0 70
c0 55 3 68 14 64 8 -3 42 -11 76 -18 l62 -12 -69 -69 c-89 -91 -207 -186 -275
-221 -86 -45 -88 -51 -83 -283 2 -109 0 -226 -5 -259 -31 -217 -36 -283 -27
-370 3 -33 9 -91 12 -130 3 -38 8 -95 11 -125 10 -113 13 -437 3 -480 -14 -67
-23 -140 -23 -190 -1 -46 14 -211 19 -220 1 -3 6 -39 10 -80 3 -41 8 -88 10
-105 2 -16 7 -57 10 -90 3 -33 8 -73 12 -90 11 -58 3 -181 -17 -255 -69 -252
-71 -269 -41 -336 21 -45 51 -73 117 -104 73 -36 151 -50 309 -56 182 -7 221
2 248 58 19 38 21 49 32 133 8 68 30 148 59 220 23 57 28 86 41 220 15 150 68
229 162 242 37 5 49 0 160 -75 66 -44 127 -91 135 -103 25 -37 177 -190 243
-246 179 -151 351 -243 424 -227 131 28 249 155 292 315 27 102 -19 153 -251
275 -30 16 -71 46 -90 68 -19 22 -46 51 -60 66 -14 15 -56 62 -94 104 -37 42
-107 106 -155 141 -47 35 -91 68 -96 72 -171 131 -245 223 -245 302 0 66 34
105 159 179 122 72 130 78 200 187 69 104 74 108 275 171 98 31 127 44 158 75
33 32 38 42 38 83 l0 46 35 -17 c40 -19 67 -69 85 -155 6 -31 28 -84 48 -118
60 -98 257 -286 386 -368 53 -34 90 -42 206 -45 51 -1 75 -6 76 -14 1 -7 2
-21 3 -31 3 -50 71 -80 105 -47 41 42 50 -15 10 -74 -57 -87 -61 -182 -9 -231
20 -19 22 -28 17 -89 -4 -59 -1 -75 27 -138 40 -93 40 -131 -5 -223 -24 -51
-35 -88 -35 -120 0 -60 37 -177 66 -206 21 -21 30 -22 109 -19 74 3 85 1 75
-11 -6 -8 -15 -14 -20 -14 -4 0 -35 -18 -69 -41 -73 -48 -102 -101 -103 -185
-2 -107 33 -133 233 -169 80 -15 159 -30 175 -33 17 -4 66 -7 110 -7 69 0 84
3 111 24 45 33 53 57 60 179 5 88 2 121 -15 191 -24 100 -45 136 -146 246 -30
33 -55 63 -55 67 0 4 10 9 23 13 140 37 155 61 152 240 -3 153 -11 210 -49
362 -32 124 -33 133 -15 138 9 3 27 26 39 50 31 64 30 147 -6 338 -20 110 -41
193 -66 255 -16 42 -33 61 -81 98 -108 81 -200 102 -267 61 -42 -26 -37 -20
-135 -132 -44 -49 -86 -96 -95 -103 -40 -34 -95 -54 -151 -55 -52 -1 -62 2
-96 31 -21 18 -66 55 -99 82 -34 27 -80 74 -103 104 -41 53 -106 95 -171 111
-23 5 -27 14 -39 78 -26 151 -14 188 101 307 119 122 191 170 258 170 53 0 88
26 119 88 33 65 48 81 109 112 82 43 104 17 147 -176 27 -121 27 -129 7 -284
-12 -85 -5 -155 18 -200 19 -37 82 -100 100 -100 21 0 32 99 18 164 -14 69
-21 183 -12 198 8 13 22 13 114 -7 90 -18 117 -29 188 -73 93 -59 87 -62 106
50 19 109 12 270 -14 357 -27 91 -27 131 -2 202 15 45 19 74 15 140 -3 67 1
106 21 189 14 58 27 119 30 135 12 72 -65 198 -144 236 -39 19 -62 22 -170 22
-166 0 -217 -4 -265 -20 -22 -8 -63 -16 -90 -19 -50 -6 -51 -5 -65 28 -29 65
-96 43 -205 -67 -95 -96 -156 -202 -167 -289 -3 -27 0 -30 32 -32 19 -1 55 -6
80 -10 78 -13 107 -6 172 41 71 53 104 57 148 18 46 -41 47 -94 4 -138 -14
-13 -39 -15 -158 -14 -215 2 -236 -12 -236 -162 0 -43 -4 -79 -9 -79 -18 0
-91 81 -107 118 -12 27 -14 54 -10 104 5 59 4 70 -14 88 -11 11 -27 21 -35 21
-41 3 -54 2 -102 -10 -64 -16 -160 -72 -191 -112 -36 -45 -204 -176 -250 -194
-34 -14 -62 -16 -147 -11 -126 7 -182 25 -255 81 -86 65 -102 74 -160 85 -30
6 -71 21 -91 34 -64 43 -77 39 -191 -45 -87 -64 -131 -77 -193 -56 -22 7 -56
13 -75 13 l-35 -1 3 -55 c2 -39 -1 -61 -13 -75 -15 -19 -16 -13 -12 88 3 93 7
111 25 129 20 20 23 21 81 6 l60 -14 26 60 26 60 19 -32 c22 -36 52 -54 74
-46 23 9 29 40 12 71 -17 34 -200 221 -271 278 -28 22 -91 81 -141 131 -133
134 -151 141 -276 109z m441 -1050 c36 -7 121 -35 159 -51 17 -8 69 -24 115
-36 85 -21 247 -101 247 -121 0 -15 -34 -71 -77 -126 -19 -25 -47 -88 -69
-154 -34 -103 -42 -116 -93 -166 -67 -66 -143 -103 -221 -107 -31 -1 -88 -6
-126 -10 -111 -13 -148 -10 -182 14 -56 41 -94 154 -91 277 2 149 2 193 -2
230 -3 22 -1 57 3 78 6 27 4 43 -7 60 -13 20 -13 25 1 45 19 28 83 61 137 71
41 8 158 6 206 -4z m991 -161 c0 -29 -37 -73 -80 -96 -28 -15 -50 -24 -50 -20
-1 4 -5 26 -9 49 l-8 43 41 11 c22 5 46 12 51 14 17 6 55 5 55 -1z m-167 -116
c15 -1 27 -4 27 -8 0 -24 -115 -94 -174 -105 -33 -7 -35 -5 -44 29 -7 23 -7
48 0 74 l10 39 76 -14 c42 -7 89 -14 105 -15z m1504 -998 c-35 -27 -69 -43
-99 -45 -25 -2 -27 -1 -16 14 32 40 76 60 115 53 l23 -4 -23 -18z m-2075 -63
c4 -7 8 -17 8 -24 0 -14 -48 -53 -66 -53 -7 0 -51 -29 -97 -64 -128 -98 -157
-106 -157 -48 0 55 97 155 191 197 38 17 108 12 121 -8z m-647 -644 c0 -27 -6
-39 -17 -41 -14 -3 -16 1 -8 27 8 29 18 51 24 51 1 0 2 -17 1 -37z"/>
</g>
</svg>
