<?xml version="1.0" encoding="UTF-8" standalone="no"?>
<!DOCTYPE svg PUBLIC "-//W3C//DTD SVG 20010904//EN" "http://www.w3.org/TR/2001/REC-SVG-20010904/DTD/svg10.dtd">

<svg xmlns="http://www.w3.org/2000/svg" width="418" height="418" viewBox="0 0 418 418">
  <metadata>Created by potrace 1.13, written by Peter Selinger 2001-2015</metadata>
  <path id="Selection"
    fill="#cc0000" stroke="none" stroke-width="0"
    d="M 384.15,145.00
       C 384.15,145.00 381.48,133.00 381.48,133.00
         381.50,129.78 383.45,128.39 384.00,124.00
         384.47,120.22 384.44,111.55 386.52,108.75
         389.13,105.23 399.36,92.32 404.02,97.60
         404.84,98.52 405.49,100.80 405.93,102.00
         410.61,114.72 404.67,113.08 405.10,123.00
         405.46,131.09 409.12,134.55 409.00,148.00
         409.00,148.00 405.08,183.00 405.08,183.00
         405.08,183.00 405.08,195.00 405.08,195.00
         404.92,201.43 402.42,209.10 403.33,215.00
         403.33,215.00 408.16,233.00 408.16,233.00
         408.16,233.00 405.42,243.00 405.42,243.00
         405.42,243.00 405.42,259.00 405.42,259.00
         405.64,263.24 407.91,268.30 407.94,274.00
         407.98,279.89 405.50,281.43 405.14,284.58
         405.14,284.58 406.21,292.00 406.21,292.00
         406.21,292.00 405.04,301.00 405.04,301.00
         405.04,301.00 405.91,311.00 405.91,311.00
         405.91,311.00 404.49,326.00 404.49,326.00
         404.49,326.00 406.04,334.00 406.04,334.00
         406.04,334.00 406.04,353.00 406.04,353.00
         406.04,353.00 401.90,374.00 401.90,374.00
         401.88,378.18 404.86,383.18 405.47,386.00
         405.95,388.23 405.00,396.74 404.24,398.96
         403.33,401.64 399.90,406.44 397.63,408.08
         396.06,409.21 392.90,410.23 391.00,411.04
         381.34,415.14 377.76,416.98 367.00,417.00
         367.00,417.00 332.00,417.00 332.00,417.00
         332.00,417.00 312.00,415.87 312.00,415.87
         306.10,415.21 308.63,414.02 299.00,414.00
         299.00,414.00 279.00,414.00 279.00,414.00
         279.00,414.00 267.00,413.05 267.00,413.05
         267.00,413.05 250.00,413.05 250.00,413.05
         240.15,413.12 230.03,416.55 227.00,416.53
         227.00,416.53 211.00,415.46 211.00,415.46
         211.00,415.46 193.83,415.46 193.83,415.46
         193.83,415.46 179.00,414.00 179.00,414.00
         179.00,414.00 163.00,413.32 163.00,413.32
         163.00,413.32 155.00,414.00 155.00,414.00
         142.47,414.14 133.47,411.35 132.00,411.35
         127.34,411.34 128.61,413.98 118.00,414.00
         118.00,414.00 63.00,415.00 63.00,415.00
         48.88,414.83 51.25,410.15 40.00,410.00
         29.46,409.86 13.69,409.91 7.84,398.96
         4.06,391.89 4.99,385.36 7.32,378.09
         7.32,378.09 8.90,373.72 8.90,373.72
         9.71,369.42 6.00,365.72 6.23,361.00
         6.38,358.09 7.79,356.47 7.99,354.00
         7.99,354.00 7.99,346.00 7.99,346.00
         8.06,342.36 9.21,341.47 8.96,335.00
         8.96,335.00 6.19,318.00 6.19,318.00
         6.19,318.00 4.79,305.00 4.79,305.00
         4.17,300.66 3.18,300.70 3.02,295.00
         2.59,280.19 9.12,275.13 9.78,265.00
         9.78,265.00 5.67,241.00 5.67,241.00
         5.67,241.00 6.96,218.00 6.96,218.00
         6.96,218.00 6.96,206.00 6.96,206.00
         6.98,196.07 5.08,195.18 5.12,190.00
         5.12,190.00 7.07,176.00 7.07,176.00
         7.07,176.00 7.07,168.00 7.07,168.00
         7.07,168.00 8.57,162.00 8.57,162.00
         8.57,162.00 7.71,154.00 7.71,154.00
         7.91,148.62 10.96,149.60 10.74,140.00
         10.74,140.00 11.56,125.00 11.56,125.00
         10.31,119.27 4.79,118.10 5.08,105.00
         5.08,105.00 5.08,62.00 5.08,62.00
         5.08,62.00 4.00,51.00 4.00,51.00
         3.87,39.58 5.24,41.94 5.45,37.91
         5.91,29.39 3.19,32.38 7.43,22.00
         8.35,19.74 8.75,18.22 10.43,16.30
         15.80,10.18 35.86,3.58 44.00,4.18
         44.00,4.18 61.00,7.38 61.00,7.38
         61.00,7.38 69.00,7.38 69.00,7.38
         69.00,7.38 75.00,7.91 75.00,7.91
         75.00,7.91 88.00,7.00 88.00,7.00
         101.03,6.86 99.77,9.45 107.00,9.89
         107.00,9.89 125.91,9.35 125.91,9.35
         125.91,9.35 153.00,10.00 153.00,10.00
         153.00,10.00 192.00,10.00 192.00,10.00
         192.00,10.00 207.00,9.04 207.00,9.04
         207.00,9.04 224.00,12.46 224.00,12.46
         226.84,12.46 228.40,11.12 231.00,11.01
         231.00,11.01 240.00,11.01 240.00,11.01
         243.56,11.07 245.70,9.79 251.00,10.09
         251.00,10.09 277.00,12.62 277.00,12.62
         277.00,12.62 289.17,10.16 289.17,10.16
         298.28,9.44 298.54,10.79 305.99,11.52
         305.99,11.52 313.17,11.52 313.17,11.52
         319.82,11.92 324.79,14.79 332.00,13.79
         332.00,13.79 345.00,10.46 345.00,10.46
         345.00,10.46 354.00,9.88 354.00,9.88
         357.30,9.26 359.33,7.25 363.00,7.16
         367.88,7.05 372.41,11.67 377.00,13.87
         385.33,17.86 401.13,18.65 406.61,23.08
         409.18,25.16 412.24,33.57 411.18,36.73
         410.67,38.23 410.06,38.25 409.04,39.00
         412.22,49.54 409.10,48.45 409.04,54.00
         409.42,58.51 411.73,60.19 409.04,67.00
         407.91,69.22 406.22,73.52 403.78,74.30
         399.59,75.62 387.44,66.58 384.00,63.92
         384.00,63.92 376.09,58.51 376.09,58.51
         372.65,55.82 372.75,54.58 367.99,51.67
         367.99,51.67 351.00,43.14 351.00,43.14
         344.97,39.36 341.22,33.48 336.96,31.30
         333.77,29.67 322.21,27.97 319.21,29.92
         316.63,31.61 315.09,35.24 310.98,37.07
         310.98,37.07 295.00,39.16 295.00,39.16
         289.78,39.19 287.56,35.63 283.58,33.30
         280.70,31.61 275.32,30.24 272.00,30.00
         271.59,31.83 271.56,32.85 270.26,34.39
         266.66,38.66 254.51,41.84 249.00,41.98
         245.61,42.08 242.01,42.28 239.43,39.69
         236.55,36.80 236.66,31.44 231.04,32.63
         226.65,33.55 224.12,39.51 218.91,40.50
         212.54,41.70 201.94,36.52 199.00,36.85
         196.50,37.13 193.67,39.23 189.00,39.82
         175.99,41.44 175.92,39.40 167.00,39.04
         157.04,38.64 154.57,41.48 149.00,42.77
         144.71,43.76 136.49,44.12 132.00,43.96
         126.39,43.75 123.18,42.23 117.00,43.40
         115.16,43.81 112.55,45.07 111.02,43.40
         109.70,41.86 110.00,37.00 110.00,35.00
         105.86,35.69 105.29,35.96 104.00,40.00
         104.00,40.00 89.11,40.89 89.11,40.89
         83.95,39.07 85.85,31.36 77.00,33.13
         67.54,35.03 68.58,38.36 63.56,44.72
         63.56,44.72 52.55,56.86 52.55,56.86
         46.11,63.65 33.31,63.03 31.44,70.05
         30.44,73.80 34.78,75.28 36.81,78.38
         38.73,81.30 38.80,84.72 38.91,88.09
         38.91,88.09 38.13,98.00 38.13,98.00
         38.13,98.00 40.15,106.00 40.15,106.00
         40.15,106.00 40.15,118.00 40.15,118.00
         40.15,118.00 42.63,143.00 42.63,143.00
         42.43,138.88 42.30,160.63 42.63,156.00
         42.44,158.68 41.36,159.81 41.64,163.00
         41.64,163.00 42.86,170.00 42.86,170.00
         42.86,170.00 42.16,178.00 42.16,178.00
         42.53,182.29 45.36,185.25 45.73,189.00
         46.17,193.57 42.26,201.08 40.00,205.00
         41.65,205.38 42.89,205.42 44.18,206.74
         47.55,210.19 47.65,225.28 46.79,230.00
         46.79,230.00 44.84,236.00 44.84,236.00
         43.60,240.56 45.90,241.90 46.00,250.00
         46.05,254.49 45.82,260.78 44.32,265.00
         43.23,268.06 40.85,270.81 40.19,273.83
         39.42,277.39 41.48,278.91 41.46,282.00
         41.48,279.32 38.79,297.36 39.48,294.99
         38.34,298.93 35.57,299.70 33.00,305.00
         33.00,305.00 39.00,301.00 39.00,301.00
         39.00,301.00 41.00,301.00 41.00,301.00
         43.35,305.33 44.11,307.00 39.00,309.00
         40.33,316.43 42.71,329.20 42.50,336.42
         42.50,336.42 41.02,344.00 41.02,344.00
         40.76,347.17 42.08,349.04 42.33,352.00
         42.33,352.00 42.33,359.00 42.33,359.00
         42.75,361.02 44.14,363.18 45.14,365.00
         52.18,377.73 56.11,377.65 64.61,387.28
         69.15,392.44 66.30,392.98 74.00,399.00
         75.00,393.12 78.35,393.57 83.00,390.68
         86.04,388.79 88.46,386.38 92.00,385.42
         101.16,382.94 114.72,388.69 124.00,389.91
         126.69,390.38 130.28,391.24 132.73,389.91
         135.80,388.02 136.94,381.66 144.00,382.32
         147.99,382.69 150.15,385.73 152.58,386.57
         154.55,387.18 155.94,386.24 159.00,386.57
         159.00,386.57 169.00,388.52 169.00,388.52
         175.66,390.13 175.78,392.55 185.00,393.38
         192.98,394.10 211.75,387.30 220.00,386.57
         224.59,386.16 228.70,386.05 232.96,388.06
         236.18,389.58 237.81,391.68 240.09,392.09
         242.64,392.56 245.86,390.75 249.00,390.36
         258.43,389.20 262.00,393.52 264.00,402.00
         265.70,400.47 268.97,396.58 270.52,395.86
         272.31,395.03 274.87,395.53 277.00,395.24
         289.90,393.48 287.17,395.65 298.00,396.81
         298.00,396.81 312.00,396.10 312.00,396.10
         317.08,396.57 318.86,398.88 326.00,400.00
         328.81,386.91 340.18,390.52 344.00,390.39
         348.94,390.22 351.22,388.42 354.00,387.77
         356.80,387.11 358.42,387.92 361.00,386.98
         367.28,384.70 371.13,378.85 375.37,374.17
         375.37,374.17 383.48,366.71 383.48,366.71
         383.48,366.71 389.61,358.09 389.61,358.09
         392.30,354.75 395.92,352.84 396.85,350.70
         398.13,347.73 395.22,345.11 393.87,342.72
         393.87,342.72 390.86,337.00 390.86,337.00
         387.21,331.58 381.37,327.40 382.14,320.09
         382.49,316.75 384.27,315.74 384.36,312.96
         384.46,310.00 382.27,307.81 383.41,304.05
         384.47,300.57 387.52,299.53 387.76,296.89
         388.07,293.57 384.62,292.56 384.09,286.00
         383.28,275.90 385.73,263.37 385.69,262.00
         385.58,258.29 383.33,256.44 383.25,253.00
         383.09,246.62 390.39,243.52 390.71,239.00
         390.96,235.37 385.02,229.49 383.90,224.00
         383.20,220.58 385.00,215.04 385.00,210.00
         385.00,200.39 383.50,201.02 381.82,193.00
         379.67,182.74 384.69,182.33 387.86,174.00
         389.22,170.45 388.42,167.65 388.49,164.00
         388.59,159.40 388.59,158.47 384.15,157.00
         384.03,153.18 384.85,148.51 384.15,145.00 Z
       M 212.00,33.00
       C 212.00,33.00 213.00,34.00 213.00,34.00
         213.00,34.00 213.00,33.00 213.00,33.00
         213.00,33.00 212.00,33.00 212.00,33.00 Z
       M 346.00,34.00
       C 346.00,34.00 347.00,35.00 347.00,35.00
         347.00,35.00 347.00,34.00 347.00,34.00
         347.00,34.00 346.00,34.00 346.00,34.00 Z
       M 375.00,45.00
       C 375.00,45.00 376.00,46.00 376.00,46.00
         376.00,46.00 376.00,45.00 376.00,45.00
         376.00,45.00 375.00,45.00 375.00,45.00 Z
       M 109.09,127.17
       C 109.14,120.71 104.38,113.83 106.12,110.14
         109.94,102.06 123.74,106.92 127.00,106.53
         130.45,106.12 134.77,103.16 139.00,104.61
         143.10,106.02 147.92,112.31 151.00,115.48
         151.00,115.48 158.72,121.76 158.72,121.76
         158.72,121.76 167.00,130.00 167.00,130.00
         168.75,131.76 174.35,136.58 172.84,139.40
         170.61,143.52 166.87,137.77 166.00,136.00
         166.00,136.00 163.00,143.00 163.00,143.00
         161.29,142.75 156.30,141.28 155.31,141.56
         152.08,142.50 152.73,154.02 153.00,157.00
         155.72,153.11 154.85,152.46 154.00,148.00
         161.05,146.50 160.91,150.19 165.91,149.05
         172.15,147.62 176.53,139.80 180.84,140.74
         182.58,141.12 184.13,143.03 186.09,143.83
         188.53,144.83 189.91,143.92 193.00,145.55
         200.99,149.75 199.86,153.69 213.00,154.47
         222.75,155.05 223.67,154.58 230.59,148.50
         230.59,148.50 235.41,144.74 235.41,144.74
         235.41,144.74 239.68,140.10 239.68,140.10
         242.98,137.28 251.54,133.47 255.87,135.03
         260.68,136.75 257.25,141.35 257.89,145.00
         258.68,149.48 262.06,153.14 265.80,155.00
         265.80,155.00 265.80,145.06 265.80,145.06
         267.42,135.63 285.64,143.07 289.44,139.47
         293.08,136.02 290.77,130.29 286.03,129.56
         281.50,128.87 279.62,134.22 274.97,135.25
         271.81,135.94 270.74,133.86 263.00,134.00
         263.24,126.34 269.32,117.84 275.04,112.96
         278.54,109.91 285.49,104.71 286.00,112.96
         294.41,112.61 294.80,110.88 300.00,110.31
         300.00,110.31 309.00,110.31 309.00,110.31
         314.39,110.21 317.98,109.14 322.83,112.77
         326.52,115.53 329.89,121.29 329.39,126.00
         329.39,126.00 325.92,140.01 325.92,140.01
         325.44,144.68 327.04,146.57 326.42,150.00
         325.92,152.72 323.97,155.01 324.00,159.00
         324.02,162.50 325.86,165.61 326.49,169.49
         327.64,176.63 327.11,186.11 325.00,193.00
         325.00,193.00 314.99,186.68 314.99,186.68
         314.99,186.68 302.00,184.00 302.00,184.00
         300.12,195.98 305.38,196.48 302.00,207.00
         288.44,199.95 296.27,185.21 295.66,179.00
         295.41,176.44 292.32,162.98 291.02,161.25
         289.30,159.25 287.10,160.14 285.02,161.25
         278.10,164.44 279.94,169.26 275.66,172.21
         272.96,174.07 271.07,172.49 268.00,173.76
         262.87,175.89 250.76,187.36 249.46,193.00
         248.49,197.25 250.98,200.99 251.00,206.00
         262.35,208.53 261.96,212.86 265.49,216.45
         265.49,216.45 270.91,220.47 270.91,220.47
         273.66,222.71 275.23,225.80 279.01,226.07
         296.80,227.34 296.64,200.04 314.83,209.13
         316.62,210.02 321.80,213.69 322.92,215.27
         324.38,217.33 325.18,220.96 325.92,223.42
         327.79,229.58 331.72,248.29 328.66,253.78
         327.65,255.60 326.64,255.98 325.00,257.00
         328.60,272.29 330.11,272.20 330.00,289.00
         329.98,291.92 330.13,295.19 328.11,297.57
         326.09,299.95 321.95,300.25 319.00,301.00
         322.85,305.94 328.19,310.05 330.36,316.00
         332.61,322.20 333.00,327.54 332.27,334.00
         332.01,336.38 332.22,339.23 330.43,341.03
         325.18,346.30 316.06,343.42 310.00,342.06
         300.83,339.99 288.49,341.78 291.52,328.00
         291.83,326.58 292.44,324.59 293.25,323.39
         294.91,320.91 301.15,317.89 304.00,316.16
         298.68,315.46 295.46,317.11 293.22,316.16
         290.98,315.51 290.16,313.04 289.40,311.00
         288.32,308.11 286.94,303.19 287.78,300.17
         288.38,298.02 292.48,292.52 292.13,288.00
         291.68,282.18 286.37,280.96 289.00,270.00
         284.45,266.90 284.30,262.11 286.55,257.26
         286.55,257.26 289.58,252.74 289.58,252.74
         290.03,251.10 289.44,250.40 289.00,249.00
         285.69,253.87 280.22,251.24 281.00,245.00
         276.74,244.53 271.94,245.57 268.00,244.35
         261.49,242.34 246.86,228.49 242.68,223.00
         234.87,212.74 240.61,206.00 231.04,203.00
         231.20,204.63 231.56,206.33 231.04,207.96
         228.89,215.39 212.28,215.55 206.44,220.27
         204.42,221.90 201.67,230.04 195.95,233.79
         190.73,237.21 179.69,240.53 181.56,249.00
         183.70,258.70 201.41,268.04 208.39,274.81
         208.39,274.81 222.05,290.19 222.05,290.19
         227.12,293.69 241.62,298.37 241.32,306.01
         241.24,308.12 238.97,314.04 237.94,316.00
         236.75,318.26 235.67,319.78 233.81,321.56
         230.94,324.31 226.11,327.52 222.00,327.61
         218.08,327.69 213.24,324.80 210.00,322.77
         201.45,317.42 195.05,311.94 188.13,304.66
         188.13,304.66 181.49,297.12 181.49,297.12
         181.49,297.12 168.26,288.40 168.26,288.40
         167.32,288.09 166.77,288.16 165.82,288.40
         154.05,291.15 156.97,304.14 155.18,311.99
         153.85,317.83 152.49,316.25 150.58,326.28
         149.12,333.96 150.74,340.82 141.00,341.00
         131.55,341.17 113.57,341.07 108.23,331.98
         103.50,323.95 112.25,313.71 111.99,301.00
         111.99,301.00 107.51,261.00 107.51,261.00
         108.26,250.04 110.03,253.28 110.00,237.00
         110.00,237.00 108.50,214.00 108.50,214.00
         108.50,214.00 107.18,201.00 107.18,201.00
         107.18,201.00 109.81,179.00 109.81,179.00
         109.81,179.00 109.81,166.00 109.81,166.00
         109.54,162.93 108.36,158.05 109.81,155.14
         111.00,151.86 114.13,151.99 118.00,149.36
         124.16,145.15 129.85,139.35 135.00,134.00
         135.00,134.00 126.00,132.00 126.00,132.00
         126.00,132.00 126.00,140.00 126.00,140.00
         113.49,141.69 118.28,142.83 110.00,147.00
         103.67,137.07 108.97,141.08 109.09,127.17 Z
       M 180.00,175.08
       C 176.16,173.36 175.24,173.99 172.00,172.89
         162.76,169.75 160.74,167.75 150.00,167.21
         145.90,167.00 131.98,170.57 137.91,176.00
         136.00,183.06 137.82,183.03 137.91,189.00
         137.91,189.00 137.10,196.00 137.10,196.00
         136.88,201.09 138.42,211.03 143.21,213.65
         147.86,216.54 153.66,212.93 161.00,213.65
         167.04,213.91 175.20,208.24 177.99,203.00
         177.99,203.00 182.41,190.17 182.41,190.17
         184.92,185.55 187.10,186.47 189.00,180.00
         189.00,180.00 180.00,175.08 180.00,175.08 Z
       M 208.00,179.00
       C 208.00,179.00 209.00,185.00 209.00,185.00
         213.63,182.60 216.06,182.39 217.00,177.00
         217.00,177.00 208.00,179.00 208.00,179.00 Z
       M 196.00,183.00
       C 194.56,187.23 194.40,187.78 196.00,192.00
         202.03,190.41 204.53,189.51 209.00,185.00
         209.00,185.00 196.00,183.00 196.00,183.00 Z
       M 289.00,247.00
       C 293.19,247.16 295.12,245.96 298.00,243.00
         293.09,242.17 292.05,243.24 289.00,247.00 Z
       M 155.09,256.01
       C 153.75,257.99 152.69,262.34 156.77,261.29
         159.05,260.70 163.40,255.57 168.00,253.14
         169.32,252.44 172.10,251.73 172.83,250.46
         174.90,246.87 168.92,246.56 167.00,246.74
         162.59,248.52 157.80,252.01 155.09,256.01 Z
       M 132.00,289.00
       C 132.00,289.00 134.00,289.00 134.00,289.00
         134.00,289.00 134.00,283.00 134.00,283.00
         134.00,283.00 132.00,289.00 132.00,289.00 Z
       M 25.00,350.00
       C 24.50,353.82 24.80,353.92 28.00,356.00
         28.00,356.00 27.00,350.00 27.00,350.00
         27.00,350.00 25.00,350.00 25.00,350.00 Z" />
</svg>
